<?xml version="1.0" encoding="UTF-8" standalone="no"?>
<svg
   xmlns:dc="http://purl.org/dc/elements/1.1/"
   xmlns:cc="http://creativecommons.org/ns#"
   xmlns:rdf="http://www.w3.org/1999/02/22-rdf-syntax-ns#"
   xmlns:svg="http://www.w3.org/2000/svg"
   xmlns="http://www.w3.org/2000/svg"
   xmlns:sodipodi="http://sodipodi.sourceforge.net/DTD/sodipodi-0.dtd"
   xmlns:inkscape="http://www.inkscape.org/namespaces/inkscape"
   width="300mm"
   height="270mm"
   viewBox="0 0 300.00001 270"
   version="1.1"
   id="svg8"
   sodipodi:docname="blurhash_offline_mask.svg"
   inkscape:version="1.0.1 (3bc2e813f5, 2020-09-07, custom)">
  <defs
     id="defs2">
    <rect
       x="67.611415"
       y="131.99192"
       width="207.57533"
       height="78.027538"
       id="rect841" />
  </defs>
  <sodipodi:namedview
     id="base"
     pagecolor="#ffffff"
     bordercolor="#666666"
     borderopacity="1.0"
     inkscape:pageopacity="0.0"
     inkscape:pageshadow="2"
     inkscape:zoom="0.49497474"
     inkscape:cx="173.48928"
     inkscape:cy="578.37647"
     inkscape:document-units="mm"
     inkscape:current-layer="layer1"
     inkscape:document-rotation="0"
     showgrid="false"
     showborder="true"
     inkscape:window-width="1920"
     inkscape:window-height="1050"
     inkscape:window-x="0"
     inkscape:window-y="30"
     inkscape:window-maximized="1"
     fit-margin-top="0"
     fit-margin-left="0"
     fit-margin-right="0"
     fit-margin-bottom="0" />
  <metadata
     id="metadata5">
    <rdf:RDF>
      <cc:Work
         rdf:about="">
        <dc:format>image/svg+xml</dc:format>
        <dc:type
           rdf:resource="http://purl.org/dc/dcmitype/StillImage" />
        <dc:title></dc:title>
      </cc:Work>
    </rdf:RDF>
  </metadata>
  <g
     inkscape:label="Layer 1"
     inkscape:groupmode="layer"
     id="layer1"
     transform="translate(-4.586791,-22.108885)">
    <path
       id="rect833"
       style="fill:#000000;fill-opacity:1;stroke-width:2.51339;stroke-linejoin:round"
       d="M 172.50781 0 C 53.282861 -1.8947806e-14 0 22.0754 0 121.85742 L 0 925.91797 C 3.7895613e-14 1025.7 89.260609 1020.4238 200.13477 1020.4238 L 933.72461 1020.4238 C 1044.5987 1020.4238 1133.8574 1025.7 1133.8574 925.91797 L 1133.8574 121.85742 C 1133.8574 22.0754 1080.5765 0 961.35156 0 L 172.50781 0 z M 222.99414 681.58984 C 239.94737 681.58984 252.82626 686.23566 261.62891 695.52734 C 270.43154 704.65598 274.83203 718.26702 274.83203 736.36133 L 274.83203 836.36914 C 274.83203 855.27852 270.43154 869.86886 261.62891 880.13867 C 252.82626 890.4084 239.94737 895.54297 222.99414 895.54297 C 206.04091 895.54297 193.16397 890.4084 184.36133 880.13867 C 175.55869 869.7059 171.15625 855.11555 171.15625 836.36914 L 171.15625 736.36133 C 171.15625 718.26702 175.55869 704.65598 184.36133 695.52734 C 193.16397 686.23566 206.04091 681.58984 222.99414 681.58984 z M 310.82422 683.54492 L 394.9375 683.54492 L 394.9375 724.38086 L 353.125 724.38086 L 353.125 757.87891 L 392.73633 757.87891 L 392.73633 798.22461 L 353.125 798.22461 L 353.125 893.58594 L 310.82422 893.58594 L 310.82422 683.54492 z M 427.50586 683.54492 L 511.62109 683.54492 L 511.62109 724.38086 L 469.80859 724.38086 L 469.80859 757.87891 L 509.41992 757.87891 L 509.41992 798.22461 L 469.80859 798.22461 L 469.80859 893.58594 L 427.50586 893.58594 L 427.50586 683.54492 z M 544.18945 683.54492 L 586.24609 683.54492 L 586.24609 857.88672 L 629.52539 857.88672 L 629.52539 893.58594 L 544.18945 893.58594 L 544.18945 683.54492 z M 658.42578 683.54492 L 699.01562 683.54492 L 699.01562 893.58594 L 658.42578 893.58594 L 658.42578 683.54492 z M 735.00781 683.54492 L 778.28711 683.54492 L 797.60547 784.04297 L 797.60547 683.54492 L 838.19531 683.54492 L 838.19531 893.58594 L 797.11523 893.58594 L 776.08789 788.44336 L 776.08789 893.58594 L 735.00781 893.58594 L 735.00781 683.54492 z M 875.89844 683.54492 L 960.01172 683.54492 L 960.01172 724.13477 L 918.68945 724.13477 L 918.68945 764.9707 L 958.30078 764.9707 L 958.30078 804.58203 L 918.68945 804.58203 L 918.68945 852.75195 L 962.70117 852.75195 L 962.70117 893.58594 L 875.89844 893.58594 L 875.89844 683.54492 z M 223.23828 720.22266 C 216.22877 720.22266 212.72461 725.52137 212.72461 736.11719 L 212.72461 838.57031 C 212.72461 844.60177 213.45868 849.16642 214.92578 852.26367 C 216.39289 855.36084 219.08186 856.9082 222.99414 856.9082 C 226.74342 856.9082 229.27012 855.2778 230.57422 852.01758 C 231.87831 848.75736 232.53125 844.19459 232.53125 838.32617 L 232.53125 735.62695 C 232.53125 731.06259 231.87831 727.39624 230.57422 724.625 C 229.43313 721.69079 226.98755 720.22266 223.23828 720.22266 z "
       transform="matrix(0.26458333,0,0,0.26458333,4.586791,22.108885)" />
    <g
       aria-label="OFFLINE"
       transform="matrix(3.2747846,0,0,3.2747846,-173.54616,-231.98229)"
       id="text839"
       style="font-size:10.5833px;line-height:1.25;font-family:Cantarell;-inkscape-font-specification:Cantarell;letter-spacing:1.54481px;white-space:pre;shape-inside:url(#rect841);fill:#ffffff;fill-opacity:1;stroke-width:0.305363" />
  </g>
</svg>
