<?xml version="1.0" encoding="UTF-8" standalone="no"?>
<svg
   xmlns:dc="http://purl.org/dc/elements/1.1/"
   xmlns:cc="http://creativecommons.org/ns#"
   xmlns:rdf="http://www.w3.org/1999/02/22-rdf-syntax-ns#"
   xmlns:svg="http://www.w3.org/2000/svg"
   xmlns="http://www.w3.org/2000/svg"
   xmlns:sodipodi="http://sodipodi.sourceforge.net/DTD/sodipodi-0.dtd"
   xmlns:inkscape="http://www.inkscape.org/namespaces/inkscape"
   width="178.33896mm"
   height="149.77719mm"
   viewBox="0 0 178.33896 149.77719"
   version="1.1"
   id="svg8"
   sodipodi:docname="notwolt.svg"
   inkscape:version="1.0.1 (3bc2e813f5, 2020-09-07, custom)">
  <sodipodi:namedview
     pagecolor="#ffffff"
     bordercolor="#666666"
     borderopacity="1"
     objecttolerance="10"
     gridtolerance="10"
     guidetolerance="10"
     inkscape:pageopacity="0"
     inkscape:pageshadow="2"
     inkscape:window-width="1920"
     inkscape:window-height="1050"
     id="namedview911"
     showgrid="false"
     inkscape:zoom="0.26637339"
     inkscape:cx="1464.464"
     inkscape:cy="-91.344994"
     inkscape:window-x="0"
     inkscape:window-y="30"
     inkscape:window-maximized="1"
     inkscape:current-layer="svg8" />
  <defs
     id="defs2" />
  <metadata
     id="metadata5">
    <rdf:RDF>
      <cc:Work
         rdf:about="">
        <dc:format>image/svg+xml</dc:format>
        <dc:type
           rdf:resource="http://purl.org/dc/dcmitype/StillImage" />
        <dc:title />
      </cc:Work>
    </rdf:RDF>
  </metadata>
  <rect
     style="fill:#ffffff;fill-opacity:0;stroke-width:0.665004;stroke-linejoin:round"
     id="rect1474"
     width="220.06741"
     height="220.06741"
     x="327.20605"
     y="-35.300114"
     ry="0"
     inkscape:export-filename="/home/sirlarion/repos/wolt_pre-assignment/icon512.png"
     inkscape:export-xdpi="59.09462"
     inkscape:export-ydpi="59.09462" />
  <g
     id="g1482"
     transform="translate(-89.511135,29.090007)"
     style="fill:#000000;fill-opacity:1">
    <path
       style="fill:#000000;fill-opacity:1;stroke-width:0.999998"
       d="m 99.200878,120.64916 c -1.967598,-0.18058 -4.454937,-1.02696 -5.894713,-2.00584 -0.921901,-0.62678 -1.613166,-1.55005 -1.885999,-2.51897 -0.234667,-0.83339 -0.949393,-7.33272 -1.275568,-11.59934 -0.484157,-6.33313 -0.631002,-10.40584 -0.633443,-17.56833 -0.0037,-10.71786 0.515449,-18.20584 1.779079,-25.663002 0.717061,-4.231652 1.275296,-5.034416 4.608645,-6.627413 1.704226,-0.814443 3.769409,-1.403985 6.135671,-1.75153 1.34177,-0.197074 4.04438,-0.374341 4.55036,-0.298465 0.72264,0.108367 1.16731,0.576705 1.16731,1.22945 0,0.139233 -0.20737,1.007232 -0.46081,1.928886 -2.90973,10.581254 -4.55676,20.114914 -5.67221,32.833074 -0.51491,5.87083 -0.68736,11.48013 -0.55,17.88908 0.0502,2.34177 0.11723,4.64682 0.14896,5.12233 l 0.0577,0.86458 1.40954,-2.83633 c 4.53316,-9.12182 8.8424,-20.09715 14.14048,-36.01482 1.16047,-3.48653 2.20348,-6.52373 2.3178,-6.74933 0.46935,-0.92622 1.11157,-1.30992 2.75395,-1.64536 2.05504,-0.419718 5.99956,-0.801515 6.99539,-0.677094 0.57432,0.07176 0.95304,0.331539 1.19558,0.820104 l 0.19605,0.39492 -0.007,5.31996 c -0.0132,9.51548 0.36456,16.30823 1.52476,27.41795 0.54414,5.21047 0.86384,6.68621 1.62606,7.50598 0.48678,0.52354 1.26538,0.67514 1.73822,0.33844 1.28314,-0.91367 2.86203,-3.99276 4.42854,-8.63635 2.34462,-6.95012 3.82991,-15.06291 4.41225,-24.10006 0.13709,-2.12757 0.1329,-10.672816 -0.007,-13.631339 -0.3391,-7.187138 -0.97134,-12.329571 -2.29611,-18.675916 -0.41766,-2.000806 -0.42774,-2.288444 -0.0919,-2.624265 0.24167,-0.241666 0.26811,-0.247487 1.12406,-0.247487 2.9066,0 6.65892,1.090268 8.95779,2.602759 2.16715,1.425828 2.85748,3.32041 3.13925,8.615575 0.48809,9.172079 -1.68019,24.355953 -5.25283,36.784173 -4.02034,13.98563 -9.03557,22.90104 -14.33756,25.48743 -1.27078,0.61991 -1.9418,0.77284 -3.61871,0.82477 -2.12089,0.0657 -3.54753,-0.20028 -5.13057,-0.95645 -2.69394,-1.28681 -4.5659,-3.91596 -5.31232,-7.46112 -0.75237,-3.57345 -1.76135,-12.19614 -2.03902,-17.42547 -0.0272,-0.51223 -0.0712,-1.13912 -0.0978,-1.39308 l -0.0483,-0.46175 -0.65675,1.77408 c -2.46277,6.65277 -5.3924,13.61066 -8.42934,20.01975 -2.05617,4.33931 -5.35572,10.68912 -6.28454,12.09428 -0.54092,0.81832 -1.23113,1.38481 -1.91613,1.57267 -0.57278,0.15708 -1.61693,0.21072 -2.508752,0.12887 z m 69.088012,-16.80353 c -2.69667,-0.37415 -5.87759,-1.50566 -7.33359,-2.6087 -1.54477,-1.17029 -2.41926,-3.19762 -2.94597,-6.82959 -1.01471,-6.99701 -0.51951,-15.77723 1.27019,-22.52133 0.61123,-2.30328 1.59,-4.97433 2.46622,-6.73028 1.4822,-2.970306 2.86673,-4.088938 5.50505,-4.447787 1.76358,-0.239873 6.20503,0.0074 9.18016,0.511091 4.00241,0.677611 5.41959,1.47008 6.50656,3.638396 0.29803,0.59452 0.93024,2.45111 1.10507,3.24523 0.12683,0.57619 0.0691,0.57239 1.30664,0.0858 2.44395,-0.96086 5.36748,-2.68119 8.26575,-4.863937 l 0.98442,-0.741386 0.0587,-0.492088 c 0.20233,-1.695884 0.78981,-5.938937 1.11144,-8.027422 0.92527,-6.008072 2.38873,-13.472182 2.75994,-14.076583 0.0932,-0.151754 0.34713,-0.380354 0.56426,-0.508 0.37949,-0.223087 0.43912,-0.231857 1.5378,-0.226223 2.95732,0.01517 7.45345,1.280717 8.81637,2.481598 0.73548,0.648041 0.90827,1.319265 0.75454,2.931207 -0.44435,4.65931 -1.33451,8.227814 -3.47988,13.950299 l -0.67396,1.797702 -0.37804,2.455334 c -1.09923,7.139509 -1.86872,13.983979 -2.28445,20.319999 -0.1977,3.01291 -0.32011,7.29082 -0.25683,8.97467 0.11224,2.98631 0.45954,3.97498 1.43498,4.08493 0.84549,0.0953 1.79943,-0.55223 3.72984,-2.53176 3.00572,-3.08221 7.33512,-8.9714 11.39689,-15.50297 l 1.09312,-1.75781 0.34024,-2.43319 c 0.18712,-1.33826 0.59105,-3.94971 0.89762,-5.80322 0.30658,-1.85351 0.5412,-3.386231 0.52139,-3.406042 -0.0198,-0.01981 -1.13855,0.136761 -2.48609,0.347942 -4.2591,0.66745 -4.52878,0.55535 -4.59567,-1.910493 -0.0396,-1.45806 0.0862,-2.654025 0.41842,-3.98039 0.42904,-1.712795 0.95693,-2.486612 1.87185,-2.743874 0.2538,-0.07137 1.7509,-0.221657 3.45366,-0.346708 1.65312,-0.121405 3.04783,-0.2344 3.09938,-0.2511 0.0515,-0.0167 0.17821,-0.405128 0.28151,-0.863174 0.7466,-3.310878 2.30348,-8.978729 2.65908,-9.680478 0.39059,-0.770795 0.94886,-0.96509 2.76537,-0.96244 1.52754,0.0022 2.8414,0.174436 4.445,0.582602 1.74352,0.443782 2.63501,0.862841 2.94232,1.383084 0.28197,0.477322 0.19797,0.954484 -0.85924,4.881088 -0.55168,2.048933 -0.9919,3.745362 -0.9783,3.769841 0.0136,0.02448 1.77084,-0.07865 3.90498,-0.229172 10.28573,-0.725471 17.65344,-1.128011 23.9039,-1.306008 4.25357,-0.12113 4.6119,-0.07549 4.45068,0.566843 -0.0302,0.120335 -0.2253,0.400956 -0.43356,0.6236 -0.68969,0.737336 -0.98862,0.843009 -5.1694,1.827362 -10.01676,2.358423 -17.76876,4.077692 -24.96321,5.536439 l -3.6365,0.737337 -0.15133,0.671545 c -0.36455,1.617886 -1.44496,7.087286 -1.71314,8.672546 -0.99944,5.908 -1.47196,10.61194 -1.54789,15.40934 -0.049,3.09525 -0.006,3.72201 0.32765,4.73484 0.21046,0.63964 0.69686,1.21853 1.14931,1.36785 2.44657,0.80744 7.93156,-3.54232 15.81223,-12.53956 3.39311,-3.87387 7.48529,-8.96463 10.58135,-13.16347 1.41534,-1.91946 2.0073,-2.50011 2.41643,-2.37026 0.22485,0.0714 0.28718,0.49254 0.22435,1.51627 -0.16166,2.6345 -1.19121,6.48957 -2.42432,9.07768 -0.60146,1.2624 -1.03945,1.94639 -2.18866,3.41798 -2.30613,2.95302 -4.25181,5.16742 -6.86905,7.81771 -2.9415,2.97864 -5.55085,5.21832 -8.03889,6.9 -4.25352,2.87498 -7.33746,3.94658 -10.5162,3.65414 -5.11175,-0.47027 -9.31825,-3.79411 -10.45052,-8.25767 -0.23727,-0.93533 -0.41393,-2.53278 -0.36101,-3.26441 0.0199,-0.27487 0.0276,-0.49977 0.0171,-0.49977 -0.0105,0 -0.25582,0.44767 -0.54517,0.99483 -2.77784,5.25268 -6.65098,9.72659 -10.77473,12.44604 -1.61436,1.0646 -3.32013,1.79052 -4.50645,1.9178 -1.16084,0.12455 -3.6149,-0.25801 -5.1984,-0.81037 -1.67833,-0.58544 -3.70023,-1.73107 -4.42767,-2.50876 -0.49194,-0.52592 -0.77541,-1.02757 -0.99031,-1.75254 -0.28136,-0.94915 -0.33922,-1.59634 -0.43489,-4.86424 -0.16708,-5.70719 0.17049,-14.34528 0.84057,-21.50943 0.0849,-0.90805 0.14619,-1.66172 0.13614,-1.67483 -0.0101,-0.0131 -0.43217,0.26592 -0.93805,0.62007 -2.26824,1.58795 -4.51267,2.76514 -7.2616,3.80867 l -1.17349,0.44547 -0.0324,1.59648 c -0.0971,4.7899 -0.80459,9.59579 -2.06481,14.02715 -0.7626,2.68154 -1.50681,4.66137 -2.58367,6.87333 -2.29323,4.71045 -5.0847,7.67412 -7.80555,8.28705 -0.74465,0.16775 -2.65633,0.17185 -3.83561,0.008 z m 3.74816,-5.4706 c 0.89275,-0.45545 1.95504,-1.79624 2.85408,-3.60234 2.34512,-4.71115 4.03371,-12.10711 4.61918,-20.23177 l 0.0558,-0.77408 -0.43781,-0.0602 c -0.73381,-0.10092 -1.57086,-0.57886 -2.28806,-1.30644 -1.46063,-1.48176 -2.21066,-3.66324 -2.23338,-6.49589 -0.006,-0.70549 -0.0346,-1.267831 -0.0644,-1.24964 -0.20631,0.1261 -1.71585,3.07444 -2.433,4.75197 -2.28793,5.35182 -3.40318,10.90436 -3.69506,18.39672 -0.15726,4.03656 0.55855,8.37264 1.63699,9.9163 0.58229,0.83347 1.22245,1.04476 1.98568,0.65539 z"
       id="path1478" />
    <path
       style="fill:#000000;fill-opacity:1;stroke-width:0.999998"
       d="m 90.972114,42.11466 c 4.53316,-9.12182 8.79193,-37.6352507 11.765426,-54.145859 0.65131,-3.616405 1.25044,-6.77132 1.33141,-7.01092 0.33244,-0.983695 0.91337,-1.455075 2.49111,-2.021345 1.97416,-0.708547 5.82389,-1.649066 6.82729,-1.667957 0.57868,-0.01089 0.99058,0.192212 1.30033,0.641188 l 0.25037,0.362919 0.75189,5.266564 c 1.34417,9.4200704 3.23898,36.33202 4.39918,47.44174 0.54414,5.21047 0.86384,6.68621 1.62606,7.50598 0.48678,0.52354 1.26538,0.67514 1.73822,0.33844 1.28314,-0.91367 2.86203,-3.99276 4.42854,-8.63635 2.34462,-6.95012 3.82991,-15.06291 4.41225,-24.1000601 0.13709,-2.12757 0.1329,-10.672816 -0.007,-13.631339 -0.3391,-7.1871379 -0.97134,-12.3295709 -2.29611,-18.6759159 -0.41766,-2.000806 -0.42774,-2.288444 -0.0919,-2.624265 0.24167,-0.241666 0.26811,-0.247487 1.12406,-0.247487 2.9066,0 6.65892,1.090268 8.95779,2.602759 2.16715,1.425828 2.85748,3.32041 3.13925,8.615575 0.48809,9.1720789 -1.68019,24.3559529 -5.25283,36.784173 -4.02034,13.98563 -9.03557,22.90104 -14.33756,25.48743 -1.27078,0.61991 -1.9418,0.77284 -3.61871,0.82477 -2.12089,0.0657 -3.54753,-0.20028 -5.13057,-0.95645 -2.69394,-1.28681 -4.5659,-3.91596 -5.31232,-7.46112 -0.75237,-3.57345 -1.1342,-28.037841 -2.15491,-33.1740974 -0.1,-0.503113 -0.23295,-1.1173174 -0.29551,-1.3648867 l -0.11366,-0.4501395 -0.39699,1.8496161 c -1.48871,6.9360185 -3.44846,16.5782875 -5.39415,24.5451475 -1.139232,4.664719 -8.271706,21.797005 -9.200526,23.202165 -0.54092,0.81832 -1.23113,1.38481 -1.91613,1.57267 -0.37349,-3.619661 -0.64372,-7.614279 0.9757,-10.872945 z M 183.25903,-5.5746185 c -4.2591,0.66745 -10.64927,2.1138934 -10.71616,-0.3519496 -0.0396,-1.45806 0.0862,-2.654025 0.41842,-3.98039 0.42904,-1.7127949 0.95693,-2.4866119 1.87185,-2.7438739 0.2538,-0.07137 1.7509,-0.221657 3.45366,-0.346708 1.65312,-0.121405 3.04783,-0.2344 3.09938,-0.2511 2.59909,-0.11169 1.59866,-0.232811 11.25574,-0.889477 0.0136,0.02448 1.77084,-0.07865 3.90498,-0.229172 10.28573,-0.725471 17.65344,-1.128011 23.9039,-1.306008 4.25357,-0.12113 4.6119,-0.07549 4.45068,0.566843 -0.0302,0.120335 -0.2253,0.400956 -0.43356,0.6236 -0.68969,0.737336 -0.98862,0.843009 -5.1694,1.827362 -10.01676,2.358423 -17.76876,4.0776919 -24.96321,5.5364389 m 11.26702,24.9967771 c 3.39311,-3.87387 7.48529,-8.96463 10.58135,-13.1634702 1.41534,-1.91946 2.0073,-2.50011 2.41643,-2.37026 0.22485,0.0714 0.28718,0.49254 0.22435,1.51627 -0.16166,2.6345 -1.19121,6.4895702 -2.42432,9.0776802 -0.60146,1.2624 -1.03945,1.94639 -2.18866,3.41798 -2.30613,2.95302 -4.25181,5.16742 -6.86905,7.81771 -4.4621,4.217215 -10.03375,8.808106 -14.99712,9.592986 -1.16084,0.12455 -3.6149,-0.25801 -5.1984,-0.81037 -1.67833,-0.58544 -3.70023,-1.73107 -4.42767,-2.50876 -0.49194,-0.52592 -0.77541,-1.02757 -0.99031,-1.75254 -0.28136,-0.94915 -0.33922,-1.59634 -0.43489,-4.86424 -0.16708,-5.70719 0.17049,-14.34528 0.84057,-21.5094301 0.0849,-0.90805 0.14619,-1.66172001 0.13614,-1.67483001 -0.0101,-0.0131 -0.43217,0.26592 -0.93805,0.62007001 -2.26824,1.58795 -4.51267,2.76514 -7.2616,3.80867 l -1.17349,0.44547 -0.0324,1.59648 c -0.0971,4.7899001 -0.80459,9.5957901 -2.06481,14.0271501 -0.7626,2.68154 -1.50681,4.66137 -2.58367,6.87333 -2.29323,4.71045 -5.0847,7.67412 -7.80555,8.28705 -0.74465,0.16775 -2.65633,0.17185 -3.83561,0.008 l 3e-5,2.8e-4 c -2.69667,-0.37415 -5.87759,-1.50566 -7.33359,-2.6087 -1.54477,-1.17029 -2.41926,-3.19762 -2.94597,-6.82959 -1.01471,-6.99701 -0.51951,-15.77723 1.27019,-22.5213301 0.61123,-2.30328 1.59,-4.97433002 2.46622,-6.73028 1.4822,-2.970306 2.86673,-4.088938 5.50505,-4.447787 1.76358,-0.239873 6.20503,0.0074 9.18016,0.511091 4.00241,0.677611 5.41959,1.47008 6.50656,3.638396 0.29803,0.59452 0.93024,2.45110999 1.10507,3.24522999 0.12683,0.57619001 0.0691,0.57239001 1.30664,0.0858 2.44395,-0.96086 5.36748,-2.68118999 8.26575,-4.86393699 l 0.98442,-0.741386 0.0587,-0.492088 c 0.20233,-1.695884 0.78981,-5.9389369 1.11144,-8.0274219 0.92527,-6.008072 2.38873,-13.472182 2.75994,-14.076583 0.0932,-0.151754 0.34713,-0.380354 0.56426,-0.508 0.37949,-0.223087 0.43912,-0.231857 1.5378,-0.226223 2.95732,0.01517 7.45345,1.280717 8.81637,2.481598 0.73548,0.648041 0.90827,1.319265 0.75454,2.931207 -0.44435,4.65931 -1.33451,8.227814 -3.47988,13.9502989 l -0.67396,1.797702 -0.37804,2.455334 c -1.09923,7.139509 -1.86872,13.9839791 -2.28445,20.3199991 -0.1977,3.01291 -0.32011,7.29082 -0.25683,8.97467 0.11224,2.98631 0.45954,3.97498 1.43498,4.08493 0.84549,0.0953 1.79943,-0.55223 3.72984,-2.53176 m -36.25705,4.65823 c 0.89275,-0.45545 1.95504,-1.79624 2.85408,-3.60234 2.34512,-4.71115 4.03371,-12.10711 4.61918,-20.2317701 l 0.0558,-0.77408 -0.43781,-0.0602 c -0.73381,-0.10092 -1.57086,-0.57886 -2.28806,-1.30644 -1.46063,-1.48176 -2.21066,-3.66324 -2.23338,-6.49589 -0.006,-0.70549 -0.0346,-1.267831 -0.0644,-1.24964 -0.20631,0.1261 -1.71585,3.07443999 -2.433,4.75197 -2.28793,5.35182 -3.40318,10.9043601 -3.69506,18.3967201 -0.15726,4.03656 0.55855,8.37264 1.63699,9.9163 0.58229,0.83347 1.22245,1.04476 1.98568,0.65539 z"
       id="path1480" />
  </g>
  <rect
     style="fill:#00c2e8;fill-opacity:1;stroke-width:0.665004;stroke-linejoin:round"
     id="rect1484"
     width="220.06741"
     height="220.06741"
     x="327.20605"
     y="-35.300114"
     ry="29.970619"
     inkscape:export-filename="/home/sirlarion/repos/wolt_pre-assignment/icon512.png"
     inkscape:export-xdpi="59.09462"
     inkscape:export-ydpi="59.09462" />
  <g
     id="layer1"
     transform="translate(264.92907,28.935003)"
     style="fill:#ffffff;fill-opacity:1"
     inkscape:export-filename="/home/sirlarion/repos/wolt_pre-assignment/icon512.png"
     inkscape:export-xdpi="59.09462"
     inkscape:export-ydpi="59.09462">
    <path
       style="fill:#ffffff;fill-opacity:1;stroke-width:0.999998"
       d="m 99.200878,120.64916 c -1.967598,-0.18058 -4.454937,-1.02696 -5.894713,-2.00584 -0.921901,-0.62678 -1.613166,-1.55005 -1.885999,-2.51897 -0.234667,-0.83339 -0.949393,-7.33272 -1.275568,-11.59934 -0.484157,-6.33313 -0.631002,-10.40584 -0.633443,-17.56833 -0.0037,-10.71786 0.515449,-18.20584 1.779079,-25.663002 0.717061,-4.231652 1.275296,-5.034416 4.608645,-6.627413 1.704226,-0.814443 3.769409,-1.403985 6.135671,-1.75153 1.34177,-0.197074 4.04438,-0.374341 4.55036,-0.298465 0.72264,0.108367 1.16731,0.576705 1.16731,1.22945 0,0.139233 -0.20737,1.007232 -0.46081,1.928886 -2.90973,10.581254 -4.55676,20.114914 -5.67221,32.833074 -0.51491,5.87083 -0.68736,11.48013 -0.55,17.88908 0.0502,2.34177 0.11723,4.64682 0.14896,5.12233 l 0.0577,0.86458 1.40954,-2.83633 c 4.53316,-9.12182 8.8424,-20.09715 14.14048,-36.01482 1.16047,-3.48653 2.20348,-6.52373 2.3178,-6.74933 0.46935,-0.92622 1.11157,-1.30992 2.75395,-1.64536 2.05504,-0.419718 5.99956,-0.801515 6.99539,-0.677094 0.57432,0.07176 0.95304,0.331539 1.19558,0.820104 l 0.19605,0.39492 -0.007,5.31996 c -0.0132,9.51548 0.36456,16.30823 1.52476,27.41795 0.54414,5.21047 0.86384,6.68621 1.62606,7.50598 0.48678,0.52354 1.26538,0.67514 1.73822,0.33844 1.28314,-0.91367 2.86203,-3.99276 4.42854,-8.63635 2.34462,-6.95012 3.82991,-15.06291 4.41225,-24.10006 0.13709,-2.12757 0.1329,-10.672816 -0.007,-13.631339 -0.3391,-7.187138 -0.97134,-12.329571 -2.29611,-18.675916 -0.41766,-2.000806 -0.42774,-2.288444 -0.0919,-2.624265 0.24167,-0.241666 0.26811,-0.247487 1.12406,-0.247487 2.9066,0 6.65892,1.090268 8.95779,2.602759 2.16715,1.425828 2.85748,3.32041 3.13925,8.615575 0.48809,9.172079 -1.68019,24.355953 -5.25283,36.784173 -4.02034,13.98563 -9.03557,22.90104 -14.33756,25.48743 -1.27078,0.61991 -1.9418,0.77284 -3.61871,0.82477 -2.12089,0.0657 -3.54753,-0.20028 -5.13057,-0.95645 -2.69394,-1.28681 -4.5659,-3.91596 -5.31232,-7.46112 -0.75237,-3.57345 -1.76135,-12.19614 -2.03902,-17.42547 -0.0272,-0.51223 -0.0712,-1.13912 -0.0978,-1.39308 l -0.0483,-0.46175 -0.65675,1.77408 c -2.46277,6.65277 -5.3924,13.61066 -8.42934,20.01975 -2.05617,4.33931 -5.35572,10.68912 -6.28454,12.09428 -0.54092,0.81832 -1.23113,1.38481 -1.91613,1.57267 -0.57278,0.15708 -1.61693,0.21072 -2.508752,0.12887 z m 69.088012,-16.80353 c -2.69667,-0.37415 -5.87759,-1.50566 -7.33359,-2.6087 -1.54477,-1.17029 -2.41926,-3.19762 -2.94597,-6.82959 -1.01471,-6.99701 -0.51951,-15.77723 1.27019,-22.52133 0.61123,-2.30328 1.59,-4.97433 2.46622,-6.73028 1.4822,-2.970306 2.86673,-4.088938 5.50505,-4.447787 1.76358,-0.239873 6.20503,0.0074 9.18016,0.511091 4.00241,0.677611 5.41959,1.47008 6.50656,3.638396 0.29803,0.59452 0.93024,2.45111 1.10507,3.24523 0.12683,0.57619 0.0691,0.57239 1.30664,0.0858 2.44395,-0.96086 5.36748,-2.68119 8.26575,-4.863937 l 0.98442,-0.741386 0.0587,-0.492088 c 0.20233,-1.695884 0.78981,-5.938937 1.11144,-8.027422 0.92527,-6.008072 2.38873,-13.472182 2.75994,-14.076583 0.0932,-0.151754 0.34713,-0.380354 0.56426,-0.508 0.37949,-0.223087 0.43912,-0.231857 1.5378,-0.226223 2.95732,0.01517 7.45345,1.280717 8.81637,2.481598 0.73548,0.648041 0.90827,1.319265 0.75454,2.931207 -0.44435,4.65931 -1.33451,8.227814 -3.47988,13.950299 l -0.67396,1.797702 -0.37804,2.455334 c -1.09923,7.139509 -1.86872,13.983979 -2.28445,20.319999 -0.1977,3.01291 -0.32011,7.29082 -0.25683,8.97467 0.11224,2.98631 0.45954,3.97498 1.43498,4.08493 0.84549,0.0953 1.79943,-0.55223 3.72984,-2.53176 3.00572,-3.08221 7.33512,-8.9714 11.39689,-15.50297 l 1.09312,-1.75781 0.34024,-2.43319 c 0.18712,-1.33826 0.59105,-3.94971 0.89762,-5.80322 0.30658,-1.85351 0.5412,-3.386231 0.52139,-3.406042 -0.0198,-0.01981 -1.13855,0.136761 -2.48609,0.347942 -4.2591,0.66745 -4.52878,0.55535 -4.59567,-1.910493 -0.0396,-1.45806 0.0862,-2.654025 0.41842,-3.98039 0.42904,-1.712795 0.95693,-2.486612 1.87185,-2.743874 0.2538,-0.07137 1.7509,-0.221657 3.45366,-0.346708 1.65312,-0.121405 3.04783,-0.2344 3.09938,-0.2511 0.0515,-0.0167 0.17821,-0.405128 0.28151,-0.863174 0.7466,-3.310878 2.30348,-8.978729 2.65908,-9.680478 0.39059,-0.770795 0.94886,-0.96509 2.76537,-0.96244 1.52754,0.0022 2.8414,0.174436 4.445,0.582602 1.74352,0.443782 2.63501,0.862841 2.94232,1.383084 0.28197,0.477322 0.19797,0.954484 -0.85924,4.881088 -0.55168,2.048933 -0.9919,3.745362 -0.9783,3.769841 0.0136,0.02448 1.77084,-0.07865 3.90498,-0.229172 10.28573,-0.725471 17.65344,-1.128011 23.9039,-1.306008 4.25357,-0.12113 4.6119,-0.07549 4.45068,0.566843 -0.0302,0.120335 -0.2253,0.400956 -0.43356,0.6236 -0.68969,0.737336 -0.98862,0.843009 -5.1694,1.827362 -10.01676,2.358423 -17.76876,4.077692 -24.96321,5.536439 l -3.6365,0.737337 -0.15133,0.671545 c -0.36455,1.617886 -1.44496,7.087286 -1.71314,8.672546 -0.99944,5.908 -1.47196,10.61194 -1.54789,15.40934 -0.049,3.09525 -0.006,3.72201 0.32765,4.73484 0.21046,0.63964 0.69686,1.21853 1.14931,1.36785 2.44657,0.80744 7.93156,-3.54232 15.81223,-12.53956 3.39311,-3.87387 7.48529,-8.96463 10.58135,-13.16347 1.41534,-1.91946 2.0073,-2.50011 2.41643,-2.37026 0.22485,0.0714 0.28718,0.49254 0.22435,1.51627 -0.16166,2.6345 -1.19121,6.48957 -2.42432,9.07768 -0.60146,1.2624 -1.03945,1.94639 -2.18866,3.41798 -2.30613,2.95302 -4.25181,5.16742 -6.86905,7.81771 -2.9415,2.97864 -5.55085,5.21832 -8.03889,6.9 -4.25352,2.87498 -7.33746,3.94658 -10.5162,3.65414 -5.11175,-0.47027 -9.31825,-3.79411 -10.45052,-8.25767 -0.23727,-0.93533 -0.41393,-2.53278 -0.36101,-3.26441 0.0199,-0.27487 0.0276,-0.49977 0.0171,-0.49977 -0.0105,0 -0.25582,0.44767 -0.54517,0.99483 -2.77784,5.25268 -6.65098,9.72659 -10.77473,12.44604 -1.61436,1.0646 -3.32013,1.79052 -4.50645,1.9178 -1.16084,0.12455 -3.6149,-0.25801 -5.1984,-0.81037 -1.67833,-0.58544 -3.70023,-1.73107 -4.42767,-2.50876 -0.49194,-0.52592 -0.77541,-1.02757 -0.99031,-1.75254 -0.28136,-0.94915 -0.33922,-1.59634 -0.43489,-4.86424 -0.16708,-5.70719 0.17049,-14.34528 0.84057,-21.50943 0.0849,-0.90805 0.14619,-1.66172 0.13614,-1.67483 -0.0101,-0.0131 -0.43217,0.26592 -0.93805,0.62007 -2.26824,1.58795 -4.51267,2.76514 -7.2616,3.80867 l -1.17349,0.44547 -0.0324,1.59648 c -0.0971,4.7899 -0.80459,9.59579 -2.06481,14.02715 -0.7626,2.68154 -1.50681,4.66137 -2.58367,6.87333 -2.29323,4.71045 -5.0847,7.67412 -7.80555,8.28705 -0.74465,0.16775 -2.65633,0.17185 -3.83561,0.008 z m 3.74816,-5.4706 c 0.89275,-0.45545 1.95504,-1.79624 2.85408,-3.60234 2.34512,-4.71115 4.03371,-12.10711 4.61918,-20.23177 l 0.0558,-0.77408 -0.43781,-0.0602 c -0.73381,-0.10092 -1.57086,-0.57886 -2.28806,-1.30644 -1.46063,-1.48176 -2.21066,-3.66324 -2.23338,-6.49589 -0.006,-0.70549 -0.0346,-1.267831 -0.0644,-1.24964 -0.20631,0.1261 -1.71585,3.07444 -2.433,4.75197 -2.28793,5.35182 -3.40318,10.90436 -3.69506,18.39672 -0.15726,4.03656 0.55855,8.37264 1.63699,9.9163 0.58229,0.83347 1.22245,1.04476 1.98568,0.65539 z"
       id="path849" />
    <path
       style="fill:#ffffff;fill-opacity:1;stroke-width:0.999998"
       d="m 90.972114,42.11466 c 4.53316,-9.12182 8.79193,-37.6352507 11.765426,-54.145859 0.65131,-3.616405 1.25044,-6.77132 1.33141,-7.01092 0.33244,-0.983695 0.91337,-1.455075 2.49111,-2.021345 1.97416,-0.708547 5.82389,-1.649066 6.82729,-1.667957 0.57868,-0.01089 0.99058,0.192212 1.30033,0.641188 l 0.25037,0.362919 0.75189,5.266564 c 1.34417,9.4200704 3.23898,36.33202 4.39918,47.44174 0.54414,5.21047 0.86384,6.68621 1.62606,7.50598 0.48678,0.52354 1.26538,0.67514 1.73822,0.33844 1.28314,-0.91367 2.86203,-3.99276 4.42854,-8.63635 2.34462,-6.95012 3.82991,-15.06291 4.41225,-24.1000601 0.13709,-2.12757 0.1329,-10.672816 -0.007,-13.631339 -0.3391,-7.1871379 -0.97134,-12.3295709 -2.29611,-18.6759159 -0.41766,-2.000806 -0.42774,-2.288444 -0.0919,-2.624265 0.24167,-0.241666 0.26811,-0.247487 1.12406,-0.247487 2.9066,0 6.65892,1.090268 8.95779,2.602759 2.16715,1.425828 2.85748,3.32041 3.13925,8.615575 0.48809,9.1720789 -1.68019,24.3559529 -5.25283,36.784173 -4.02034,13.98563 -9.03557,22.90104 -14.33756,25.48743 -1.27078,0.61991 -1.9418,0.77284 -3.61871,0.82477 -2.12089,0.0657 -3.54753,-0.20028 -5.13057,-0.95645 -2.69394,-1.28681 -4.5659,-3.91596 -5.31232,-7.46112 -0.75237,-3.57345 -1.1342,-28.037841 -2.15491,-33.1740974 -0.1,-0.503113 -0.23295,-1.1173174 -0.29551,-1.3648867 l -0.11366,-0.4501395 -0.39699,1.8496161 c -1.48871,6.9360185 -3.44846,16.5782875 -5.39415,24.5451475 -1.139232,4.664719 -8.271706,21.797005 -9.200526,23.202165 -0.54092,0.81832 -1.23113,1.38481 -1.91613,1.57267 -0.37349,-3.619661 -0.64372,-7.614279 0.9757,-10.872945 z M 183.25903,-5.5746185 c -4.2591,0.66745 -10.64927,2.1138934 -10.71616,-0.3519496 -0.0396,-1.45806 0.0862,-2.654025 0.41842,-3.98039 0.42904,-1.7127949 0.95693,-2.4866119 1.87185,-2.7438739 0.2538,-0.07137 1.7509,-0.221657 3.45366,-0.346708 1.65312,-0.121405 3.04783,-0.2344 3.09938,-0.2511 2.59909,-0.11169 1.59866,-0.232811 11.25574,-0.889477 0.0136,0.02448 1.77084,-0.07865 3.90498,-0.229172 10.28573,-0.725471 17.65344,-1.128011 23.9039,-1.306008 4.25357,-0.12113 4.6119,-0.07549 4.45068,0.566843 -0.0302,0.120335 -0.2253,0.400956 -0.43356,0.6236 -0.68969,0.737336 -0.98862,0.843009 -5.1694,1.827362 -10.01676,2.358423 -17.76876,4.0776919 -24.96321,5.5364389 m 11.26702,24.9967771 c 3.39311,-3.87387 7.48529,-8.96463 10.58135,-13.1634702 1.41534,-1.91946 2.0073,-2.50011 2.41643,-2.37026 0.22485,0.0714 0.28718,0.49254 0.22435,1.51627 -0.16166,2.6345 -1.19121,6.4895702 -2.42432,9.0776802 -0.60146,1.2624 -1.03945,1.94639 -2.18866,3.41798 -2.30613,2.95302 -4.25181,5.16742 -6.86905,7.81771 -4.4621,4.217215 -10.03375,8.808106 -14.99712,9.592986 -1.16084,0.12455 -3.6149,-0.25801 -5.1984,-0.81037 -1.67833,-0.58544 -3.70023,-1.73107 -4.42767,-2.50876 -0.49194,-0.52592 -0.77541,-1.02757 -0.99031,-1.75254 -0.28136,-0.94915 -0.33922,-1.59634 -0.43489,-4.86424 -0.16708,-5.70719 0.17049,-14.34528 0.84057,-21.5094301 0.0849,-0.90805 0.14619,-1.66172001 0.13614,-1.67483001 -0.0101,-0.0131 -0.43217,0.26592 -0.93805,0.62007001 -2.26824,1.58795 -4.51267,2.76514 -7.2616,3.80867 l -1.17349,0.44547 -0.0324,1.59648 c -0.0971,4.7899001 -0.80459,9.5957901 -2.06481,14.0271501 -0.7626,2.68154 -1.50681,4.66137 -2.58367,6.87333 -2.29323,4.71045 -5.0847,7.67412 -7.80555,8.28705 -0.74465,0.16775 -2.65633,0.17185 -3.83561,0.008 l 3e-5,2.8e-4 c -2.69667,-0.37415 -5.87759,-1.50566 -7.33359,-2.6087 -1.54477,-1.17029 -2.41926,-3.19762 -2.94597,-6.82959 -1.01471,-6.99701 -0.51951,-15.77723 1.27019,-22.5213301 0.61123,-2.30328 1.59,-4.97433002 2.46622,-6.73028 1.4822,-2.970306 2.86673,-4.088938 5.50505,-4.447787 1.76358,-0.239873 6.20503,0.0074 9.18016,0.511091 4.00241,0.677611 5.41959,1.47008 6.50656,3.638396 0.29803,0.59452 0.93024,2.45110999 1.10507,3.24522999 0.12683,0.57619001 0.0691,0.57239001 1.30664,0.0858 2.44395,-0.96086 5.36748,-2.68118999 8.26575,-4.86393699 l 0.98442,-0.741386 0.0587,-0.492088 c 0.20233,-1.695884 0.78981,-5.9389369 1.11144,-8.0274219 0.92527,-6.008072 2.38873,-13.472182 2.75994,-14.076583 0.0932,-0.151754 0.34713,-0.380354 0.56426,-0.508 0.37949,-0.223087 0.43912,-0.231857 1.5378,-0.226223 2.95732,0.01517 7.45345,1.280717 8.81637,2.481598 0.73548,0.648041 0.90827,1.319265 0.75454,2.931207 -0.44435,4.65931 -1.33451,8.227814 -3.47988,13.9502989 l -0.67396,1.797702 -0.37804,2.455334 c -1.09923,7.139509 -1.86872,13.9839791 -2.28445,20.3199991 -0.1977,3.01291 -0.32011,7.29082 -0.25683,8.97467 0.11224,2.98631 0.45954,3.97498 1.43498,4.08493 0.84549,0.0953 1.79943,-0.55223 3.72984,-2.53176 m -36.25705,4.65823 c 0.89275,-0.45545 1.95504,-1.79624 2.85408,-3.60234 2.34512,-4.71115 4.03371,-12.10711 4.61918,-20.2317701 l 0.0558,-0.77408 -0.43781,-0.0602 c -0.73381,-0.10092 -1.57086,-0.57886 -2.28806,-1.30644 -1.46063,-1.48176 -2.21066,-3.66324 -2.23338,-6.49589 -0.006,-0.70549 -0.0346,-1.267831 -0.0644,-1.24964 -0.20631,0.1261 -1.71585,3.07443999 -2.433,4.75197 -2.28793,5.35182 -3.40318,10.9043601 -3.69506,18.3967201 -0.15726,4.03656 0.55855,8.37264 1.63699,9.9163 0.58229,0.83347 1.22245,1.04476 1.98568,0.65539 z"
       id="path847" />
  </g>
</svg>
